<svg width="119" height="119" viewBox="0 0 119 119" fill="none" xmlns="http://www.w3.org/2000/svg">
<path d="M59.2231 0C55.6115 22.53 52.5768 35.9231 44.2499 44.2499C35.9231 52.5768 22.53 55.6115 0 59.2231C22.53 62.8348 35.9231 65.8696 44.2499 74.2214C52.5768 82.5482 55.6115 95.9414 59.2231 118.489C62.8348 95.9414 65.8696 82.5482 74.1964 74.1964C82.5482 65.8696 95.9414 62.8348 118.489 59.2231C95.9414 55.6115 82.5482 52.5768 74.2214 44.2499C65.8696 35.9231 62.8348 22.53 59.2231 0ZM101.133 17.3634C89.6461 25.6651 80.8177 31.6343 72.9423 34.9701C74.2214 37.3277 75.7012 39.3341 77.4067 41.0396C79.1122 42.7451 81.1186 44.2249 83.5013 45.5291C86.8621 37.6537 92.8313 28.8253 101.133 17.3634ZM17.3784 17.3784C25.6902 28.8504 31.6343 37.6537 34.9701 45.504C37.3277 44.2249 39.3341 42.7451 41.0396 41.0396C42.7451 39.3341 44.2249 37.3277 45.504 34.9701C37.6537 31.6343 28.8504 25.6902 17.3784 17.3784ZM83.5013 72.9172C81.1186 74.2214 79.1122 75.7012 77.4067 77.4067C75.7012 79.1122 74.2214 81.1186 72.9172 83.5013C80.8177 86.8371 89.6461 92.8063 101.133 101.133C92.8063 89.6461 86.8371 80.8177 83.5013 72.9172ZM34.9701 72.9423C31.6343 80.8177 25.6651 89.6461 17.3634 101.133C28.8253 92.8313 37.6537 86.8621 45.5291 83.5013C44.2249 81.1186 42.7451 79.1122 41.0396 77.4067C39.3341 75.7012 37.3277 74.2214 34.9701 72.9423Z" fill="white"/>
</svg>
